<svg width="24" height="24" viewBox="0 0 24 24" fill="none" xmlns="http://www.w3.org/2000/svg">
<path d="M18.3463 8.08H4.15966C3.31834 8.07901 2.51177 7.74436 1.91687 7.14946C1.32197 6.55456 0.987316 5.74798 0.986328 4.90667C0.987317 3.86732 1.40063 2.87083 2.13556 2.1359C2.87049 1.40097 3.86698 0.987655 4.90633 0.986667L15.3597 0.986667C16.399 0.987655 17.3955 1.40097 18.1304 2.1359C18.8654 2.87083 19.2787 3.86732 19.2797 4.90667V7.14667C19.2797 7.3942 19.1813 7.6316 19.0063 7.80663C18.8313 7.98167 18.5939 8.08 18.3463 8.08ZM4.90633 2.85333C4.36205 2.85432 3.84035 3.07097 3.45549 3.45583C3.07063 3.84069 2.85398 4.36239 2.85299 4.90667C2.85299 5.25322 2.99066 5.58557 3.23571 5.83062C3.48076 6.07567 3.81311 6.21333 4.15966 6.21333H17.413V4.90667C17.412 4.36239 17.1954 3.84069 16.8105 3.45583C16.4256 3.07097 15.9039 2.85432 15.3597 2.85333H4.90633Z" fill="#FBD10E"/>
<path d="M19.093 23.0133H4.90633C3.86698 23.0123 2.87049 22.599 2.13556 21.8641C1.40063 21.1292 0.987317 20.1327 0.986328 19.0933L0.986328 4.90667C0.986328 4.65913 1.08466 4.42173 1.2597 4.2467C1.43473 4.07167 1.67213 3.97333 1.91966 3.97333C2.1672 3.97333 2.40459 4.07167 2.57963 4.2467C2.75466 4.42173 2.85299 4.65913 2.85299 4.90667V19.0933C2.85398 19.6376 3.07063 20.1593 3.45549 20.5442C3.84035 20.929 4.36205 21.1457 4.90633 21.1467H19.093C19.6373 21.1457 20.159 20.929 20.5438 20.5442C20.9287 20.1593 21.1453 19.6376 21.1463 19.0933V10.1333C21.1453 9.58906 20.9287 9.06736 20.5438 8.6825C20.159 8.29764 19.6373 8.08099 19.093 8.08H15.5762C15.3287 8.08 15.0913 7.98167 14.9162 7.80663C14.7412 7.6316 14.6429 7.3942 14.6429 7.14667C14.6429 6.89913 14.7412 6.66173 14.9162 6.4867C15.0913 6.31167 15.3287 6.21333 15.5762 6.21333H19.093C20.1323 6.21432 21.1288 6.62764 21.8638 7.36257C22.5987 8.0975 23.012 9.09399 23.013 10.1333V19.0933C23.012 20.1327 22.5987 21.1292 21.8638 21.8641C21.1288 22.599 20.1323 23.0123 19.093 23.0133Z" fill="#FBD10E"/>
<path d="M22.0799 18.5333H16.1065C15.0669 18.5333 14.0698 18.1203 13.3347 17.3852C12.5995 16.65 12.1865 15.653 12.1865 14.6133C12.1865 13.5737 12.5995 12.5766 13.3347 11.8415C14.0698 11.1063 15.0669 10.6933 16.1065 10.6933H22.0799C22.3274 10.6933 22.5648 10.7917 22.7398 10.9667C22.9149 11.1417 23.0132 11.3791 23.0132 11.6267V17.6C23.0132 17.8475 22.9149 18.0849 22.7398 18.26C22.5648 18.435 22.3274 18.5333 22.0799 18.5333ZM16.1065 12.56C15.5619 12.56 15.0397 12.7763 14.6546 13.1614C14.2695 13.5465 14.0532 14.0688 14.0532 14.6133C14.0532 15.1579 14.2695 15.6802 14.6546 16.0653C15.0397 16.4503 15.5619 16.6667 16.1065 16.6667H21.1465V12.56H16.1065Z" fill="#FBD10E"/>
<path d="M17.5995 15.7333C18.2181 15.7333 18.7195 15.2319 18.7195 14.6133C18.7195 13.9948 18.2181 13.4933 17.5995 13.4933C16.9809 13.4933 16.4795 13.9948 16.4795 14.6133C16.4795 15.2319 16.9809 15.7333 17.5995 15.7333Z" fill="#FBD10E"/>
</svg>
