<svg width="22" height="22" viewBox="0 0 22 22" fill="none" xmlns="http://www.w3.org/2000/svg">
<path d="M0.9201 12.3067C0.737541 12.3048 0.559525 12.2495 0.408093 12.1475C0.25666 12.0456 0.138461 11.9014 0.0681297 11.7329C-0.00220187 11.5645 -0.0215774 11.379 0.012402 11.1997C0.0463814 11.0203 0.132224 10.8548 0.2593 10.7237L10.3393 0.643733C10.5103 0.467744 10.7436 0.365869 10.9889 0.36C11.2365 0.359966 11.4741 0.457947 11.6497 0.632533L21.7297 10.7125C21.905 10.8878 22.0034 11.1255 22.0034 11.3733C22.0034 11.6212 21.905 11.8589 21.7297 12.0341C21.5544 12.2094 21.3167 12.3078 21.0689 12.3078C20.8211 12.3078 20.5834 12.2094 20.4081 12.0341L10.9889 2.6L1.5809 12.0416C1.40431 12.2138 1.16674 12.3091 0.9201 12.3067Z" fill="#FBD10E"/>
<path d="M15.4993 21.9611H6.50192C5.46585 21.9571 4.47356 21.5428 3.74235 20.8088C3.01113 20.0747 2.60058 19.0809 2.60059 18.0448V8.78613C2.60059 8.5386 2.69892 8.3012 2.87395 8.12617C3.04899 7.95113 3.28638 7.8528 3.53392 7.8528C3.78145 7.8528 4.01885 7.95113 4.19389 8.12617C4.36892 8.3012 4.46725 8.5386 4.46725 8.78613V18.0448C4.46725 18.5884 4.68319 19.1097 5.06757 19.4941C5.25789 19.6844 5.48384 19.8354 5.7325 19.9384C5.98117 20.0414 6.24769 20.0944 6.51685 20.0944H15.5142C16.0526 20.0866 16.5663 19.8672 16.9442 19.4836C17.3221 19.1001 17.534 18.5833 17.5339 18.0448V8.78613C17.5339 8.5386 17.6323 8.3012 17.8073 8.12617C17.9823 7.95113 18.2197 7.8528 18.4673 7.8528C18.7148 7.8528 18.9522 7.95113 19.1272 8.12617C19.3023 8.3012 19.4006 8.5386 19.4006 8.78613V18.0448C19.4006 19.0809 18.99 20.0747 18.2588 20.8088C17.5276 21.5428 16.5353 21.9571 15.4993 21.9611Z" fill="#FBD10E"/>
<path d="M13.6131 18.6011H8.38647C8.26376 18.6016 8.14217 18.5778 8.02871 18.531C7.91525 18.4843 7.81217 18.4156 7.7254 18.3288C7.63863 18.242 7.5699 18.1389 7.52317 18.0255C7.47644 17.912 7.45264 17.7904 7.45313 17.6677V15.1104C7.45313 14.1698 7.8268 13.2677 8.49193 12.6025C9.15706 11.9374 10.0592 11.5637 10.9998 11.5637C11.9404 11.5637 12.8425 11.9374 13.5077 12.6025C14.1728 13.2677 14.5465 14.1698 14.5465 15.1104V17.6677C14.547 17.7904 14.5232 17.912 14.4764 18.0255C14.4297 18.1389 14.361 18.242 14.2742 18.3288C14.1874 18.4156 14.0843 18.4843 13.9709 18.531C13.8574 18.5778 13.7358 18.6016 13.6131 18.6011ZM9.3198 16.7344H12.6798V15.1104C12.6798 14.6648 12.5028 14.2375 12.1877 13.9225C11.8727 13.6074 11.4454 13.4304 10.9998 13.4304C10.5542 13.4304 10.1269 13.6074 9.81186 13.9225C9.4968 14.2375 9.3198 14.6648 9.3198 15.1104V16.7344Z" fill="#FBD10E"/>
</svg>
