<svg width="23" height="23" viewBox="0 0 23 23" fill="none" xmlns="http://www.w3.org/2000/svg">
<path d="M7.02452 22.0133C6.84047 22.0119 6.66092 21.9563 6.50827 21.8535C6.35562 21.7507 6.23663 21.6052 6.16615 21.4351C6.09567 21.2651 6.07682 21.0781 6.11196 20.8974C6.1471 20.7167 6.23466 20.5504 6.36372 20.4192L7.76745 19.0267C7.94324 18.8564 8.17887 18.762 8.4236 18.7637C8.66833 18.7655 8.90257 18.8633 9.07587 19.0362C9.24917 19.209 9.34766 19.4429 9.35013 19.6876C9.35259 19.9324 9.25884 20.1683 9.08905 20.3445L7.68532 21.7483C7.50873 21.9205 7.27116 22.0158 7.02452 22.0133Z" fill="#FBD10E"/>
<path d="M1.2934 16.2827C1.10856 16.283 0.927789 16.2284 0.773996 16.1259C0.620203 16.0234 0.500317 15.8775 0.429538 15.7067C0.358759 15.536 0.340273 15.3481 0.376424 15.1668C0.412576 14.9855 0.501736 14.8191 0.632602 14.6885L2.04007 13.2848C2.21999 13.1413 2.44659 13.0693 2.67636 13.0826C2.90613 13.096 3.12286 13.1938 3.28491 13.3573C3.44696 13.5207 3.5429 13.7382 3.55431 13.9681C3.56573 14.198 3.4918 14.424 3.34674 14.6027L1.9542 16.0101C1.77814 16.184 1.54087 16.2819 1.2934 16.2827Z" fill="#FBD10E"/>
<path d="M2.3686 20.9381C2.12113 20.9374 1.88386 20.8395 1.7078 20.6656C1.62088 20.5789 1.55192 20.4759 1.50487 20.3625C1.45781 20.2491 1.43359 20.1276 1.43359 20.0048C1.43359 19.882 1.45781 19.7605 1.50487 19.6471C1.55192 19.5337 1.62088 19.4307 1.7078 19.344L4.90353 16.1483C5.07979 15.9785 5.3157 15.8847 5.56042 15.8872C5.80514 15.8897 6.0391 15.9881 6.21191 16.1614C6.38472 16.3347 6.48255 16.569 6.48432 16.8137C6.4861 17.0584 6.39167 17.2941 6.2214 17.4699L3.0294 20.6656C2.85334 20.8395 2.61606 20.9374 2.3686 20.9381Z" fill="#FBD10E"/>
<path d="M14.7783 21.8267C14.6987 21.8265 14.6195 21.8152 14.5431 21.7931C14.3852 21.7523 14.2408 21.6708 14.1242 21.5569C14.0076 21.4429 13.9229 21.3004 13.8785 21.1435L12.5121 16.208C12.4463 15.9694 12.4779 15.7144 12.6001 15.4991C12.7223 15.2838 12.925 15.1258 13.1636 15.06C13.4022 14.9942 13.6572 15.0258 13.8725 15.148C14.0878 15.2701 14.2458 15.4728 14.3116 15.7115L15.2524 19.1013L17.3767 16.9771L16.63 13.1205C16.6055 13.0004 16.6049 12.8766 16.6282 12.7563C16.6515 12.6359 16.6983 12.5214 16.7659 12.4191C16.9024 12.2126 17.1154 12.0687 17.358 12.0192C17.6006 11.9697 17.8529 12.0186 18.0594 12.1551C18.266 12.2916 18.4098 12.5046 18.4593 12.7472L19.318 17.0891C19.3481 17.2397 19.3407 17.3955 19.2964 17.5426C19.2522 17.6898 19.1724 17.8238 19.0641 17.9328L15.454 21.5392C15.3671 21.6308 15.2622 21.7037 15.146 21.7531C15.0298 21.8025 14.9046 21.8276 14.7783 21.8267Z" fill="#FBD10E"/>
<path d="M10.978 17.8096C10.8551 17.8093 10.7335 17.7848 10.6201 17.7374C10.5067 17.69 10.4038 17.6206 10.3172 17.5333L4.84042 12.0528C4.72307 11.9375 4.63869 11.793 4.59602 11.6341C4.55335 11.4753 4.55395 11.3079 4.59776 11.1493C6.61376 3.75733 14.1738 -1.13333 21.4127 0.2144C21.5982 0.248421 21.769 0.338063 21.9023 0.471425C22.0357 0.604786 22.1253 0.775558 22.1594 0.961066C23.5071 8.2 18.6127 15.7563 11.2244 17.776C11.1442 17.7981 11.0613 17.8094 10.978 17.8096ZM6.54656 11.1269L11.2468 15.8235C17.2202 13.9232 21.1924 7.89387 20.4271 1.94667C14.4724 1.18133 8.44682 5.15733 6.54656 11.1269Z" fill="#FBD10E"/>
<path d="M6.41172 9.89493C6.32723 9.89479 6.24312 9.8835 6.16159 9.86133L1.22985 8.4912C1.0724 8.44772 0.929119 8.36369 0.814319 8.2475C0.699518 8.1313 0.617222 7.98702 0.575652 7.82905C0.534083 7.67109 0.534697 7.50498 0.577433 7.34733C0.620169 7.18968 0.70353 7.04601 0.819186 6.93066L4.42932 3.32426C4.53743 3.21567 4.67061 3.13537 4.81711 3.09044C4.96361 3.04551 5.11892 3.03735 5.26932 3.06666L9.61119 3.92533C9.85427 3.97484 10.0677 4.11888 10.2046 4.32577C10.3415 4.53266 10.3906 4.78545 10.3411 5.02853C10.2915 5.27161 10.1475 5.48507 9.94061 5.62194C9.73372 5.75882 9.48093 5.8079 9.23785 5.7584L5.38505 5.01173L3.27199 7.12106L6.66185 8.06186C6.87973 8.12196 7.0684 8.25907 7.19283 8.44775C7.31727 8.63643 7.36901 8.86385 7.33845 9.08779C7.30789 9.31173 7.19711 9.51697 7.02668 9.66541C6.85624 9.81385 6.63773 9.89541 6.41172 9.89493Z" fill="#FBD10E"/>
<path d="M14.737 10.5445C14.3548 10.5463 13.9761 10.472 13.6229 10.3259C13.2697 10.1797 12.9491 9.96469 12.68 9.69333C12.2711 9.28673 11.9921 8.76789 11.8784 8.20258C11.7648 7.63726 11.8215 7.05092 12.0414 6.51788C12.2613 5.98483 12.6346 5.52908 13.1138 5.20838C13.593 4.88769 14.1567 4.71649 14.7333 4.71649C15.3099 4.71649 15.8736 4.88769 16.3528 5.20838C16.832 5.52908 17.2053 5.98483 17.4252 6.51788C17.6451 7.05092 17.7018 7.63726 17.5881 8.20258C17.4745 8.76789 17.1955 9.28673 16.7866 9.69333C16.5179 9.96329 16.1985 10.1775 15.8468 10.3235C15.4951 10.4696 15.1179 10.5447 14.737 10.5445ZM14.737 6.59093C14.5296 6.58836 14.3261 6.64778 14.1527 6.76159C13.9793 6.87539 13.8437 7.03839 13.7635 7.22969C13.6833 7.421 13.6621 7.6319 13.7025 7.83537C13.7429 8.03883 13.8431 8.2256 13.9904 8.37173C14.1903 8.56604 14.4582 8.67474 14.737 8.67474C15.0159 8.67474 15.2837 8.56604 15.4837 8.37173C15.6309 8.2256 15.7312 8.03883 15.7716 7.83537C15.812 7.6319 15.7907 7.421 15.7105 7.22969C15.6303 7.03839 15.4948 6.87539 15.3214 6.76159C15.1479 6.64778 14.9444 6.58836 14.737 6.59093Z" fill="#FBD10E"/>
</svg>
