<svg width="24" height="24" viewBox="0 0 24 24" fill="none" xmlns="http://www.w3.org/2000/svg">
<path d="M11.9997 23.0133C9.82143 23.0133 7.69212 22.3674 5.88099 21.1573C4.06985 19.9471 2.65825 18.227 1.82467 16.2146C0.9911 14.2022 0.772999 11.9878 1.19795 9.85141C1.6229 7.71503 2.67182 5.75264 4.21206 4.2124C5.75231 2.67216 7.71469 1.62324 9.85107 1.19829C11.9874 0.773335 14.2019 0.991436 16.2143 1.82501C18.2267 2.65858 19.9468 4.07019 21.1569 5.88132C22.3671 7.69246 23.013 9.82177 23.013 12C23.01 14.92 21.8488 17.7196 19.784 19.7843C17.7192 21.8491 14.9197 23.0104 11.9997 23.0133ZM11.9997 2.85334C10.1906 2.85334 8.42221 3.38978 6.91805 4.39483C5.41389 5.39988 4.24154 6.82839 3.54925 8.49972C2.85696 10.1711 2.67582 12.0101 3.02875 13.7844C3.38168 15.5587 4.25281 17.1885 5.532 18.4677C6.81118 19.7469 8.44096 20.618 10.2152 20.9709C11.9895 21.3238 13.8286 21.1427 15.4999 20.4504C17.1713 19.7581 18.5998 18.5858 19.6048 17.0816C20.6099 15.5775 21.1463 13.809 21.1463 12C21.1434 9.57507 20.1788 7.2503 18.4641 5.53561C16.7494 3.82091 14.4246 2.8563 11.9997 2.85334Z" fill="#FBD10E"/>
<path d="M14.908 16.5733C14.7395 16.5748 14.5735 16.5323 14.4264 16.4501L11.5182 14.7701C11.3793 14.6856 11.2647 14.5666 11.1855 14.4246C11.1063 14.2826 11.0653 14.1226 11.0664 13.96V8.36C11.0664 8.11246 11.1648 7.87507 11.3398 7.70003C11.5148 7.525 11.7522 7.42667 11.9998 7.42667C12.2473 7.42667 12.4847 7.525 12.6597 7.70003C12.8348 7.87507 12.9331 8.11246 12.9331 8.36V13.4224L15.3747 14.8299C15.5535 14.9322 15.6935 15.0908 15.7728 15.281C15.852 15.4712 15.8661 15.6823 15.8128 15.8813C15.7596 16.0804 15.6419 16.2562 15.4782 16.3814C15.3146 16.5065 15.1141 16.574 14.908 16.5733Z" fill="#FBD10E"/>
</svg>
