<svg width="14" height="16" viewBox="0 0 14 16" fill="none" xmlns="http://www.w3.org/2000/svg">
<path d="M7.03483 15.8667C6.85802 15.8667 6.68845 15.7965 6.56343 15.6714C6.4384 15.5464 6.36816 15.3768 6.36816 15.2V0.800029C6.36816 0.623218 6.4384 0.453648 6.56343 0.328624C6.68845 0.2036 6.85802 0.133362 7.03483 0.133362C7.21164 0.133362 7.38121 0.2036 7.50623 0.328624C7.63126 0.453648 7.7015 0.623218 7.7015 0.800029V15.2C7.7015 15.3768 7.63126 15.5464 7.50623 15.6714C7.38121 15.7965 7.21164 15.8667 7.03483 15.8667Z" fill="#1F1F1F"/>
<path d="M7.0346 15.8667C6.85772 15.8667 6.68803 15.7967 6.5626 15.672L0.927931 10.0373C0.802749 9.91215 0.732422 9.74237 0.732422 9.56534C0.732422 9.3883 0.802749 9.21852 0.927931 9.09334C1.05311 8.96815 1.2229 8.89783 1.39993 8.89783C1.57697 8.89783 1.74675 8.96815 1.87193 9.09334L7.0346 14.2667L12.1999 9.09334C12.3251 8.96815 12.4949 8.89783 12.6719 8.89783C12.849 8.89783 13.0187 8.96815 13.1439 9.09334C13.2691 9.21852 13.3394 9.3883 13.3394 9.56534C13.3394 9.74237 13.2691 9.91215 13.1439 10.0373L7.5066 15.672C7.38117 15.7967 7.21147 15.8667 7.0346 15.8667V15.8667Z" fill="#1F1F1F"/>
</svg>
